<svg width="107" height="102" viewBox="0 0 107 102" fill="none" xmlns="http://www.w3.org/2000/svg">
<path d="M58.2315 2.63897C56.3805 -0.879658 50.6242 -0.879658 48.7732 2.63897L0.625572 94.1019C0.192156 94.9217 -0.0227135 95.8404 0.00190017 96.7685C0.0265139 97.6966 0.289771 98.6025 0.766021 99.3979C1.24227 100.193 1.91527 100.851 2.71944 101.307C3.52362 101.763 4.43154 102.002 5.35474 102H101.65C102.572 102.002 103.48 101.763 104.283 101.308C105.087 100.852 105.76 100.195 106.235 99.3996C106.711 98.6046 106.974 97.6993 106.998 96.7718C107.022 95.8443 106.807 94.9263 106.374 94.1073L58.2315 2.63897ZM58.8521 85.8595H48.1526V75.0991H58.8521V85.8595ZM48.1526 64.3388V37.4379H58.8521L58.8574 64.3388H48.1526Z" fill="#AF0000"/>
</svg>
