<svg width="37" height="37" viewBox="0 0 37 37" fill="none" xmlns="http://www.w3.org/2000/svg">
<path fill-rule="evenodd" clip-rule="evenodd" d="M6.34322 24.6937C6.33219 24.6828 6.32119 24.6718 6.31021 24.6609C3.01883 21.3695 3.01883 16.0331 6.31021 12.7417C9.36273 9.68921 14.1742 9.46769 17.482 12.0772C17.9156 12.4192 18.5429 12.4192 18.9765 12.0772C22.2843 9.46766 27.0958 9.68917 30.1483 12.7417C33.4397 16.033 33.4397 21.3693 30.1485 24.6607C30.1485 24.6607 30.1485 24.6607 30.1485 24.6607C30.1485 24.6607 30.1485 24.6607 30.1485 24.6608L18.9365 35.8728C18.546 36.2633 17.9128 36.2633 17.5223 35.8728L6.34322 24.6937Z" fill="#FF8484"/>
</svg>
